<svg version="1.1" id="Layer_1" xmlns="http://www.w3.org/2000/svg" xmlns:xlink="http://www.w3.org/1999/xlink" x="0px" y="0px"
	 width="100%" viewBox="0 0 1772 1885" enable-background="new 0 0 1772 1885" xml:space="preserve">
<path fill="#FFFFFF" opacity="1.000000" stroke="none" 
	d="
M970.000000,1886.000000 
	C646.666687,1886.000000 323.833344,1886.000000 1.000000,1886.000000 
	C1.000000,1257.666626 1.000000,629.333313 1.000000,1.000000 
	C591.666687,1.000000 1182.333374,1.000000 1773.000000,1.000000 
	C1773.000000,629.333313 1773.000000,1257.666626 1773.000000,1886.000000 
	C1505.500000,1886.000000 1238.000000,1886.000000 970.000000,1886.000000 
M1586.947266,987.017578 
	C1586.625732,975.587341 1586.473022,964.149231 1585.935791,952.729126 
	C1585.379150,940.897522 1584.449585,929.083496 1583.687256,917.325256 
	C1537.620361,917.325256 1492.083130,917.325256 1446.373901,917.325256 
	C1446.373901,941.087708 1446.373901,964.525940 1446.194702,988.883545 
	C1445.800903,994.141724 1445.062866,999.400696 1445.075806,1004.657837 
	C1445.120117,1022.713379 1444.547363,1040.673096 1441.110107,1058.498779 
	C1439.302490,1067.873291 1439.206543,1077.593506 1437.187256,1086.908325 
	C1432.537964,1108.357056 1427.185181,1129.653320 1421.757568,1151.682129 
	C1415.414429,1169.140015 1409.640991,1186.831543 1402.601562,1204.003906 
	C1390.401978,1233.763916 1375.766724,1262.405884 1357.745239,1289.055908 
	C1344.308105,1308.926758 1329.453247,1327.842529 1315.114014,1347.097534 
	C1311.293579,1352.227661 1307.046753,1357.040283 1302.395996,1362.288696 
	C1297.832520,1367.104126 1293.360718,1372.010498 1288.689575,1376.718994 
	C1270.327393,1395.228638 1251.005371,1412.632080 1230.525879,1428.824341 
	C1198.927368,1453.807739 1164.817017,1474.762695 1128.694336,1492.290405 
	C1101.191650,1505.635254 1072.560303,1516.311279 1043.138062,1524.969116 
	C1002.313477,1536.982178 960.618286,1544.019775 918.322388,1546.663208 
	C895.191895,1548.108887 871.822021,1546.869995 848.621094,1545.665894 
	C831.405640,1544.772461 814.197327,1542.564209 797.153259,1539.878906 
	C780.392334,1537.238281 763.574280,1534.212280 747.266541,1529.628784 
	C725.840942,1523.606812 704.503052,1516.868042 683.840881,1508.645020 
	C661.901611,1499.913696 640.280823,1490.047241 619.479309,1478.889893 
	C600.287781,1468.596069 582.134705,1456.283691 563.947510,1444.222168 
	C543.399963,1430.595337 524.588257,1414.669800 506.567230,1397.877563 
	C496.853790,1388.826416 487.481323,1379.376831 478.396210,1369.692993 
	C469.347931,1360.048218 460.851471,1349.885620 451.831757,1339.327271 
	C380.258667,1250.248047 339.864044,1148.578369 329.113770,1034.132690 
	C328.748718,1030.882080 328.093536,1027.633789 328.066956,1024.380493 
	C327.923462,1006.815613 328.046936,989.248291 327.860748,971.684143 
	C327.699249,956.444763 328.339355,941.296875 330.949738,926.240967 
	C334.752136,904.310120 337.499207,882.157471 342.270081,860.445251 
	C346.332520,841.957214 352.396820,823.889160 358.005096,805.768250 
	C361.223755,795.368408 365.298096,785.233337 369.528839,774.537170 
	C375.524750,761.429626 380.739075,747.889893 387.693756,735.312500 
	C399.062683,714.751892 411.025208,694.469604 423.764160,674.732666 
	C433.511841,659.630066 443.987640,644.814331 455.683838,631.197449 
	C471.400269,612.900208 488.600037,595.876648 505.180054,578.322388 
	C505.970245,577.485779 506.931519,576.812012 507.801392,576.049072 
	C513.876404,570.720581 519.948303,565.388550 526.650696,559.797424 
	C527.352844,559.355408 528.120056,558.990417 528.747681,558.460205 
	C558.946594,532.949219 591.372620,510.659271 626.698242,492.927460 
	C647.656311,482.407471 669.376099,473.407288 690.720764,463.652313 
	C693.235291,462.503082 694.756531,462.885437 695.676880,465.542969 
	C697.517395,470.857544 699.330872,476.183594 701.299500,481.451141 
	C704.123657,489.008148 707.076538,496.517090 710.031250,504.798309 
	C720.774780,534.563416 731.518311,564.328491 742.526184,594.826050 
	C763.873169,572.198975 784.274170,550.596191 804.648499,528.968323 
	C813.417908,519.659485 822.131958,510.298523 831.483887,500.686127 
	C835.458679,496.448792 839.422363,492.200928 843.410095,487.975861 
	C865.340820,464.739990 887.286804,441.518494 909.207153,418.272827 
	C917.369507,409.616943 925.476562,400.908997 934.240417,392.091309 
	C936.713928,389.419861 939.162354,386.724640 941.664856,384.080688 
	C965.649597,358.741028 989.608765,333.377106 1013.646484,308.087830 
	C1030.487549,290.369781 1047.442871,272.760437 1064.328369,255.084442 
	C1064.954102,254.429398 1065.380493,253.583817 1066.177734,252.421799 
	C1048.098633,250.317368 1030.598999,248.303909 1013.105347,246.237793 
	C993.756653,243.952545 974.425049,241.518967 955.065186,239.334427 
	C935.185059,237.091217 915.268372,235.171692 895.388611,232.926132 
	C873.062561,230.404266 850.762451,227.653122 828.445679,225.047928 
	C818.595825,223.898087 808.726013,222.919449 798.877197,221.761169 
	C783.629150,219.967911 768.402344,217.990173 753.146118,216.271942 
	C738.851196,214.662003 724.511719,213.442551 710.224731,211.769852 
	C692.852539,209.735962 675.526428,207.309494 658.158569,205.235764 
	C642.734863,203.394196 627.282410,201.791992 611.840088,200.107666 
	C607.685303,199.654510 603.521118,199.287140 598.528015,198.798904 
	C614.668701,243.213562 630.417297,286.549377 646.186584,329.942230 
	C643.880859,331.022339 642.406372,331.762451 640.893799,332.414154 
	C619.881104,341.468170 598.527771,349.816223 577.947083,359.763123 
	C559.784058,368.541443 542.481567,379.100403 524.116821,388.978516 
	C516.696228,393.551727 509.001038,397.738434 501.910553,402.776245 
	C485.636353,414.339142 469.267242,425.827881 453.665100,438.260803 
	C437.367920,451.247589 421.181213,464.544586 406.292755,479.084808 
	C387.092773,497.835693 369.100128,517.835876 350.871338,537.560303 
	C345.394775,543.486145 340.864990,550.287048 335.311707,557.054688 
	C330.077454,563.686768 324.517273,570.089722 319.665588,576.990723 
	C299.171387,606.141724 279.874298,636.080872 264.062714,668.056335 
	C254.454041,687.487854 245.585632,707.315735 237.168610,727.295837 
	C231.148987,741.584900 226.430557,756.422180 220.790024,771.674561 
	C219.839752,774.836731 218.829010,777.982117 217.949463,781.163818 
	C213.651550,796.711121 208.845123,812.143921 205.254807,827.854004 
	C201.032120,846.330933 197.532440,864.993469 194.369659,883.685547 
	C192.038116,897.465027 190.475571,911.393677 189.084274,925.307251 
	C187.983627,936.314331 187.078445,947.401367 187.113724,958.449585 
	C187.199509,985.308716 185.604980,1012.223694 188.906342,1039.930542 
	C189.921799,1050.410645 190.563232,1060.943481 192.033066,1071.359497 
	C194.816605,1091.085083 197.604630,1110.832275 201.292160,1130.400635 
	C204.035309,1144.957642 207.782837,1159.365234 211.837067,1173.625000 
	C216.847351,1191.247559 222.053833,1208.857056 228.219528,1226.098877 
	C239.368011,1257.274658 252.716721,1287.544312 268.486969,1316.690552 
	C272.960266,1324.958008 277.924835,1332.959717 282.816650,1341.812866 
	C282.902527,1342.304810 282.845062,1342.889771 283.095032,1343.275391 
	C291.608490,1356.404175 300.099182,1369.548340 308.699890,1382.619995 
	C329.429901,1414.126343 353.110992,1443.387817 379.391846,1470.294434 
	C399.763153,1491.150879 421.615021,1510.634644 443.629089,1529.785645 
	C457.080719,1541.487793 472.084229,1551.406128 486.837830,1562.705078 
	C488.861511,1563.899414 490.885162,1565.093628 493.002075,1566.694336 
	C493.325195,1566.935669 493.648315,1567.177002 494.479034,1567.938721 
	C509.082642,1577.196777 523.280762,1587.188965 538.388489,1595.534302 
	C559.067139,1606.957153 580.122009,1617.818115 601.603577,1627.633301 
	C621.233154,1636.602173 641.438171,1644.440186 661.778809,1651.683716 
	C677.631042,1657.328735 693.923279,1661.960449 710.304321,1665.843140 
	C731.584778,1670.886719 753.083130,1675.093384 774.608887,1678.991333 
	C790.554626,1681.878540 806.653931,1684.046997 822.759766,1685.875244 
	C834.080261,1687.160400 845.526123,1687.883179 856.916992,1687.894653 
	C881.841614,1687.919922 906.767700,1687.383179 931.691223,1686.960571 
	C937.986877,1686.853760 944.310730,1686.622559 950.559204,1685.905029 
	C963.260803,1684.446167 975.941467,1682.763916 988.590088,1680.897949 
	C1001.250488,1679.030151 1013.921143,1677.131836 1026.475220,1674.674438 
	C1036.915161,1672.630737 1047.297729,1670.120850 1057.520264,1667.174683 
	C1079.351562,1660.882812 1101.240112,1654.701172 1122.763428,1647.458984 
	C1138.138916,1642.285400 1153.072388,1635.723633 1167.991089,1629.289795 
	C1180.813965,1623.759766 1193.548218,1617.940918 1205.935303,1611.506226 
	C1219.494263,1604.462891 1232.747070,1596.796265 1245.878052,1588.972656 
	C1257.473145,1582.063965 1268.716919,1574.565674 1280.740479,1567.001099 
	C1282.527954,1565.812988 1284.390869,1564.723389 1286.091309,1563.421631 
	C1303.043213,1550.445190 1320.212769,1537.737427 1336.840820,1524.357178 
	C1358.963867,1506.555420 1379.808350,1487.266846 1398.470215,1465.846558 
	C1416.187744,1445.510376 1433.529297,1424.815674 1450.272827,1403.674072 
	C1459.672363,1391.805908 1467.525146,1378.712646 1476.654907,1365.776489 
	C1497.317017,1333.971924 1515.236938,1300.675293 1529.916870,1265.719482 
	C1537.167114,1248.454834 1543.452515,1230.775391 1549.845093,1213.163940 
	C1553.503174,1203.086060 1556.677124,1192.821289 1559.743164,1182.543213 
	C1562.660156,1172.764771 1565.153320,1162.859863 1567.980713,1152.220215 
	C1572.393188,1127.775879 1577.210938,1103.395264 1581.061035,1078.862671 
	C1583.252930,1064.895508 1584.240479,1050.702759 1585.087524,1036.570679 
	C1586.057983,1020.381104 1586.271729,1004.146179 1586.947266,987.017578 
M957.164917,1175.500000 
	C957.164917,973.090149 957.164917,770.680298 957.164917,568.292725 
	C910.024963,568.292725 863.605286,568.292725 816.835083,568.292725 
	C816.835083,570.719116 816.835083,572.856201 816.835083,574.993225 
	C816.835083,871.988647 816.835144,1168.984131 816.835205,1465.979492 
	C816.835205,1467.146118 816.973694,1468.332642 816.809204,1469.475586 
	C816.370178,1472.526245 818.152466,1473.559082 820.684570,1473.960449 
	C825.043213,1474.651733 829.384888,1475.608643 833.772095,1475.930786 
	C844.981995,1476.753906 856.218445,1477.904297 867.434570,1477.807129 
	C888.995178,1477.620239 910.557617,1476.856323 932.101624,1475.923828 
	C940.397217,1475.564819 948.644653,1474.094238 957.164978,1473.100830 
	C957.164978,1373.778809 957.164978,1275.139404 957.164917,1175.500000 
M1167.292603,1067.500000 
	C1167.292603,947.756226 1167.292603,828.012451 1167.292603,708.213745 
	C1120.139404,708.213745 1073.739136,708.213745 1027.195801,708.213745 
	C1027.195801,957.950989 1027.195801,1207.365112 1027.195801,1457.647095 
	C1036.084595,1454.661499 1044.669800,1452.247681 1052.885254,1448.920776 
	C1070.043823,1441.972046 1087.527710,1435.545776 1103.917480,1427.051514 
	C1123.887329,1416.701782 1142.820801,1404.361816 1162.321045,1393.087891 
	C1166.100342,1390.903198 1167.404907,1388.390137 1167.399170,1383.983887 
	C1167.262085,1278.822632 1167.292847,1173.661377 1167.292603,1067.500000 
M677.851562,1431.644653 
	C700.112671,1442.162109 722.973572,1451.077271 746.774414,1457.841919 
	C746.774414,1300.864990 746.774414,1144.282349 746.774414,987.460205 
	C700.099304,987.460205 653.698853,987.460205 606.705383,987.460205 
	C606.705383,989.850891 606.705383,991.966980 606.705383,994.083069 
	C606.705383,1124.399292 606.705383,1254.715454 606.705566,1385.031616 
	C606.705566,1386.198120 606.448303,1387.444458 606.776062,1388.510498 
	C607.167847,1389.784668 607.767761,1391.327759 608.780029,1392.029297 
	C630.463257,1407.056519 653.237122,1420.198975 677.851562,1431.644653 
M424.352051,1152.147827 
	C448.629730,1220.036499 486.154175,1279.585693 536.609619,1331.373047 
	C536.609619,1169.817993 536.609619,1008.793579 536.609619,847.872681 
	C489.772522,847.872681 443.326385,847.872681 396.776825,847.872681 
	C396.621582,848.936279 396.397675,849.744568 396.400879,850.551941 
	C396.618958,905.836182 396.606049,961.123352 397.263062,1016.402466 
	C397.430054,1030.452881 399.383240,1044.522217 401.158600,1058.501099 
	C402.682922,1070.503296 404.325470,1082.595581 407.342010,1094.279785 
	C412.299469,1113.482056 418.410706,1132.386597 424.352051,1152.147827 
M1237.000000,993.500000 
	C1237.000000,1105.392456 1237.000000,1217.284790 1237.000000,1329.177246 
	C1237.540405,1329.554077 1238.080688,1329.930908 1238.621094,1330.307739 
	C1239.960938,1328.458130 1241.175293,1326.500122 1242.662231,1324.777466 
	C1249.490356,1316.867065 1256.473755,1309.089966 1263.256348,1301.141235 
	C1280.393433,1281.057129 1295.451904,1259.450073 1308.878906,1236.769775 
	C1321.401733,1215.616699 1332.057129,1193.517822 1341.329346,1170.688232 
	C1351.835083,1144.821655 1360.265381,1118.338257 1365.789062,1091.058960 
	C1369.582886,1072.322998 1371.916992,1053.249268 1374.044434,1034.230347 
	C1375.918457,1017.476807 1377.164917,1000.606628 1377.665405,983.757629 
	C1378.273682,963.280518 1377.816528,942.771545 1377.793945,922.276367 
	C1377.792480,920.994080 1377.561035,919.712097 1377.423950,918.300171 
	C1330.570312,918.300171 1284.018555,918.300171 1237.000000,918.300171 
	C1237.000000,943.253052 1237.000000,967.876526 1237.000000,993.500000 
z"/>
<path fill="#DF383C" opacity="1.000000" stroke="none" 
	d="
M957.164917,1176.000000 
	C957.164978,1275.139404 957.164978,1373.778809 957.164978,1473.100830 
	C948.644653,1474.094238 940.397217,1475.564819 932.101624,1475.923828 
	C910.557617,1476.856323 888.995178,1477.620239 867.434570,1477.807129 
	C856.218445,1477.904297 844.981995,1476.753906 833.772095,1475.930786 
	C829.384888,1475.608643 825.043213,1474.651733 820.684570,1473.960449 
	C818.152466,1473.559082 816.370178,1472.526245 816.809204,1469.475586 
	C816.973694,1468.332642 816.835205,1467.146118 816.835205,1465.979492 
	C816.835144,1168.984131 816.835083,871.988647 816.835083,574.993225 
	C816.835083,572.856201 816.835083,570.719116 816.835083,568.292725 
	C863.605286,568.292725 910.024963,568.292725 957.164917,568.292725 
	C957.164917,770.680298 957.164917,973.090149 957.164917,1176.000000 
z"/>
<path fill="#F47C2E" opacity="1.000000" stroke="none" 
	d="
M452.113037,1339.950073 
	C460.851471,1349.885620 469.347931,1360.048218 478.396210,1369.692993 
	C487.481323,1379.376831 496.853790,1388.826416 506.567230,1397.877563 
	C524.588257,1414.669800 543.399963,1430.595337 563.947510,1444.222168 
	C582.134705,1456.283691 600.287781,1468.596069 619.479309,1478.889893 
	C640.280823,1490.047241 661.901611,1499.913696 683.840881,1508.645020 
	C704.503052,1516.868042 725.840942,1523.606812 747.266541,1529.628784 
	C763.574280,1534.212280 780.392334,1537.238281 797.153259,1539.878906 
	C814.197327,1542.564209 831.405640,1544.772461 848.621094,1545.665894 
	C871.822021,1546.869995 895.191895,1548.108887 918.322388,1546.663208 
	C960.618286,1544.019775 1002.313477,1536.982178 1043.138062,1524.969116 
	C1072.560303,1516.311279 1101.191650,1505.635254 1128.694336,1492.290405 
	C1164.817017,1474.762695 1198.927368,1453.807739 1230.525879,1428.824341 
	C1251.005371,1412.632080 1270.327393,1395.228638 1288.689575,1376.718994 
	C1293.360718,1372.010498 1297.832520,1367.104126 1303.104248,1362.146240 
	C1309.660767,1361.736694 1315.664185,1359.212158 1321.180786,1363.721558 
	C1322.008057,1364.397827 1324.694214,1363.837891 1325.800781,1362.951294 
	C1330.170776,1359.451050 1336.190186,1361.043579 1338.902588,1362.575684 
	C1345.241089,1366.155640 1350.660889,1358.937622 1356.212769,1362.734863 
	C1356.323486,1362.810669 1356.897583,1362.486450 1357.012939,1362.236816 
	C1358.979248,1357.982666 1361.919312,1360.329224 1364.914185,1360.692139 
	C1369.920044,1361.298950 1375.032715,1360.978394 1380.094971,1361.184692 
	C1383.034912,1361.304321 1385.959229,1361.827148 1388.898804,1361.926147 
	C1394.442383,1362.112793 1399.991577,1362.137817 1405.538818,1362.199463 
	C1407.086548,1362.216675 1408.635376,1362.093872 1410.183716,1362.092285 
	C1417.375854,1362.085327 1424.568970,1362.168823 1431.759888,1362.076782 
	C1435.831055,1362.024780 1439.896973,1361.587036 1443.968506,1361.517334 
	C1449.859985,1361.416382 1455.754517,1361.491455 1461.647827,1361.491455 
	C1463.867554,1362.497925 1466.175903,1363.098633 1467.959595,1362.385864 
	C1473.431396,1360.199341 1474.137207,1360.360352 1476.074707,1366.171143 
	C1467.525146,1378.712646 1459.672363,1391.805908 1450.272827,1403.674072 
	C1433.529297,1424.815674 1416.187744,1445.510376 1398.470215,1465.846558 
	C1379.808350,1487.266846 1358.963867,1506.555420 1336.840820,1524.357178 
	C1320.212769,1537.737427 1303.043213,1550.445190 1286.091309,1563.421631 
	C1284.390869,1564.723389 1282.527954,1565.812988 1280.389526,1566.754395 
	C1279.844971,1565.888428 1279.709229,1564.756958 1279.449097,1564.727661 
	C1276.304565,1564.373047 1273.872681,1562.080933 1269.885864,1563.575439 
	C1263.755127,1565.873535 1256.653320,1561.443359 1250.252808,1564.974487 
	C1246.684204,1559.810547 1242.426880,1563.538574 1238.233154,1563.601318 
	C1232.699585,1563.684082 1226.271240,1565.065186 1221.858521,1559.533936 
	C1221.520996,1559.110840 1220.387207,1559.323120 1219.278564,1559.202515 
	C1219.403198,1561.191406 1219.504639,1562.808716 1219.558716,1563.671265 
	C1217.014526,1563.276978 1214.839111,1562.970703 1212.677246,1562.588013 
	C1211.909912,1562.452148 1210.970215,1562.345215 1210.460449,1561.857666 
	C1207.794678,1559.309570 1205.553101,1559.787720 1202.501343,1561.680420 
	C1200.205566,1563.104248 1196.953735,1563.299805 1194.099609,1563.429688 
	C1190.592896,1563.589478 1187.039185,1563.262329 1183.542358,1562.841064 
	C1181.994263,1562.654541 1179.722168,1562.122925 1179.190186,1561.048950 
	C1177.604614,1557.847656 1175.901245,1558.822388 1174.162720,1560.421631 
	C1172.239624,1562.190430 1170.616577,1564.083008 1167.838501,1561.651611 
	C1167.373291,1561.244629 1165.893921,1561.576538 1165.125366,1562.003296 
	C1159.476562,1565.138672 1153.477295,1564.576660 1147.660278,1563.214966 
	C1144.100952,1562.381714 1140.842529,1560.263428 1137.265137,1558.638794 
	C1137.387695,1560.382324 1137.503540,1562.029663 1137.616211,1563.633057 
	C1134.245605,1563.001221 1131.399048,1562.035156 1128.547363,1562.019775 
	C1121.898193,1561.983887 1115.248047,1562.588135 1109.031982,1559.283813 
	C1108.329468,1558.910278 1106.942749,1560.010010 1105.835938,1560.173218 
	C1103.277344,1560.550171 1100.700195,1560.824219 1098.122070,1561.036621 
	C1096.629517,1561.159424 1093.968018,1560.676636 1093.798706,1561.158081 
	C1092.262817,1565.523926 1089.423950,1563.612915 1086.900024,1562.819336 
	C1084.242432,1561.983765 1081.657471,1560.917480 1079.292969,1560.045166 
	C1077.520996,1561.989136 1076.019775,1563.635986 1073.971802,1565.882935 
	C1073.820923,1563.200073 1073.743408,1561.822876 1073.666016,1560.445557 
	C1072.144165,1561.052124 1070.622192,1561.658691 1069.100342,1562.265381 
	C1067.115356,1561.244995 1065.119263,1560.895142 1063.117065,1560.856323 
	C1060.686157,1560.808838 1058.243530,1561.186646 1055.817993,1561.087036 
	C1052.148926,1560.936279 1047.522949,1558.975464 1045.013062,1560.534912 
	C1038.198608,1564.769043 1030.232056,1558.796143 1023.864624,1563.874146 
	C1023.334167,1564.297119 1021.758301,1563.310791 1020.643799,1563.124878 
	C1019.272400,1562.895874 1017.877808,1562.731079 1016.489136,1562.695068 
	C1012.690552,1562.596069 1008.889893,1562.551514 1005.089905,1562.536621 
	C1000.917725,1562.520264 996.573120,1561.077393 992.776001,1564.312622 
	C992.243347,1564.766235 990.683167,1563.993896 989.593933,1563.817871 
	C984.069092,1562.925049 978.568298,1561.775269 973.008606,1561.240845 
	C968.612366,1560.818359 964.143127,1561.155762 958.954895,1561.155762 
	C957.438538,1562.155762 955.026611,1563.746338 952.468018,1565.433716 
	C951.200806,1563.686523 950.301880,1562.447021 949.338928,1561.119263 
	C947.655762,1562.639771 946.243713,1563.915283 944.884521,1565.143188 
	C940.954102,1561.965820 934.011963,1560.519165 931.545044,1562.146362 
	C927.199768,1565.012573 920.154785,1563.029297 917.681824,1557.550171 
	C916.100159,1558.754517 913.650940,1559.658691 913.358948,1561.024414 
	C912.526978,1564.914917 910.062988,1564.117676 907.656738,1563.715698 
	C902.258728,1562.813599 897.373962,1560.352173 891.287903,1561.462036 
	C888.076233,1562.047852 884.478088,1560.168945 881.887695,1563.808594 
	C881.709778,1564.058716 880.916443,1563.988403 880.444397,1563.893188 
	C875.516296,1562.898438 870.595337,1561.868042 865.337036,1560.777954 
	C863.287903,1563.787231 860.819397,1566.033936 856.315186,1562.944458 
	C855.182495,1562.167358 852.395630,1563.695923 850.411377,1564.303589 
	C849.108765,1564.702515 847.882446,1565.350586 846.621948,1565.887085 
	C846.422852,1565.414062 846.223694,1564.940918 846.024597,1564.467896 
	C846.848145,1563.541504 847.671753,1562.615234 848.897949,1561.236084 
	C846.029175,1561.236084 843.586792,1560.552490 841.817505,1561.354370 
	C834.219421,1564.797852 826.478882,1564.281860 818.598389,1563.113892 
	C815.634705,1562.674561 812.607239,1562.156128 809.645935,1562.324829 
	C804.835571,1562.599121 800.061890,1563.471436 795.258789,1563.952393 
	C793.976440,1564.080688 792.190369,1564.193848 791.410706,1563.474243 
	C787.657837,1560.010254 784.315735,1562.120361 780.568604,1563.456665 
	C777.853943,1564.424683 773.988220,1566.818604 772.719604,1561.238647 
	C772.604370,1560.731689 771.130432,1559.963013 770.856506,1560.150024 
	C767.511047,1562.432739 763.869080,1562.734131 759.906799,1562.912354 
	C756.258850,1563.076294 752.699585,1564.814941 749.047302,1565.613770 
	C748.306458,1565.775879 747.218140,1564.972534 746.475769,1564.380981 
	C744.641541,1562.919922 742.914978,1561.323975 741.462891,1560.058960 
	C738.525574,1561.795044 736.365601,1563.438843 733.931824,1564.356689 
	C732.698120,1564.821899 730.446167,1564.511597 729.552368,1563.635742 
	C724.419861,1558.606079 721.724792,1558.071655 715.412109,1560.999878 
	C712.665771,1562.273804 710.013245,1563.679932 706.568359,1561.665039 
	C704.997131,1560.745850 702.100525,1562.148315 699.794922,1562.408936 
	C698.271423,1562.581299 696.438660,1563.169189 695.254211,1562.567383 
	C692.340881,1561.087280 690.118835,1558.794312 686.607178,1562.194336 
	C685.421021,1563.342896 681.297607,1562.759399 679.399719,1561.564697 
	C676.581604,1559.790649 674.669861,1559.561646 672.481201,1562.012817 
	C669.829895,1564.982178 667.360474,1565.203125 663.868530,1562.696899 
	C661.979675,1561.341309 658.714478,1561.727661 656.064697,1561.687500 
	C654.858521,1561.669189 653.564514,1563.049316 652.438293,1562.890137 
	C646.632202,1562.069580 641.124573,1560.740356 634.982178,1562.552856 
	C630.366516,1563.914795 624.741150,1557.607300 619.947266,1563.625854 
	C619.702454,1563.933228 618.137512,1563.091553 617.163086,1562.941772 
	C616.078125,1562.774658 614.961060,1562.690063 613.865845,1562.740723 
	C611.344727,1562.857056 608.829285,1563.091431 606.309937,1563.252075 
	C600.271057,1563.637329 593.945618,1560.065918 588.153564,1564.663940 
	C587.567139,1565.129395 586.007446,1564.466431 584.930786,1564.200562 
	C579.581482,1562.880005 574.393494,1556.875488 569.093201,1563.912964 
	C563.291443,1559.679443 556.595642,1559.514648 550.661438,1563.693115 
	C546.176697,1566.850830 542.428345,1565.417603 537.965027,1563.416504 
	C534.648193,1561.929321 530.452271,1561.664062 526.743164,1561.978516 
	C522.158630,1562.367188 517.528076,1566.461304 513.377991,1560.718506 
	C513.017090,1560.219116 510.170105,1561.380493 508.550781,1561.970459 
	C507.296448,1562.427368 505.962097,1563.944214 504.999725,1563.694214 
	C501.445618,1562.771362 498.031250,1561.310181 494.564331,1560.051392 
	C494.666107,1560.390259 494.767853,1560.729126 494.869629,1561.067871 
	C492.043335,1561.420410 489.217010,1561.772949 486.390747,1562.125610 
	C472.084229,1551.406128 457.080719,1541.487793 443.629089,1529.785645 
	C421.615021,1510.634644 399.763153,1491.150879 379.391846,1470.294434 
	C353.110992,1443.387817 329.429901,1414.126343 308.699890,1382.619995 
	C300.099182,1369.548340 291.608490,1356.404175 283.095032,1343.275391 
	C282.845062,1342.889771 282.902527,1342.304810 283.134033,1341.398193 
	C288.260498,1337.401611 294.059021,1336.817505 299.573883,1336.988892 
	C307.133118,1337.223755 314.653290,1338.714355 322.191406,1339.657104 
	C322.339325,1339.675415 322.501007,1339.538574 322.658417,1339.532837 
	C328.572571,1339.316040 334.487030,1339.107422 340.401306,1338.894531 
	C343.537140,1338.781738 346.674683,1338.700439 349.807831,1338.535889 
	C352.490692,1338.395142 355.176331,1337.920288 357.846619,1338.010742 
	C362.846741,1338.179932 367.835419,1338.671509 372.832031,1338.976685 
	C373.642151,1339.026245 374.468018,1338.799927 375.287750,1338.712158 
	C379.370544,1338.275024 383.453766,1337.841919 387.536804,1337.407349 
	C387.593170,1337.886108 387.649506,1338.364746 387.705841,1338.843506 
	C388.927338,1337.854858 390.148834,1336.866333 390.385345,1336.674927 
	C393.430023,1337.371704 395.422089,1338.212280 397.402313,1338.185181 
	C399.985138,1338.149902 402.646851,1336.781860 405.119507,1337.120483 
	C412.653473,1338.152222 420.553619,1334.072998 427.802368,1338.756958 
	C428.147369,1338.979736 428.821503,1338.904785 429.257996,1338.742065 
	C435.357147,1336.467041 441.249420,1338.236328 447.190155,1339.533936 
	C448.785278,1339.882568 450.469635,1339.822510 452.113037,1339.950073 
z"/>
<path fill="#BC8341" opacity="1.000000" stroke="none" 
	d="
M1167.292725,1068.000000 
	C1167.292847,1173.661377 1167.262085,1278.822632 1167.399170,1383.983887 
	C1167.404907,1388.390137 1166.100342,1390.903198 1162.321045,1393.087891 
	C1142.820801,1404.361816 1123.887329,1416.701782 1103.917480,1427.051514 
	C1087.527710,1435.545776 1070.043823,1441.972046 1052.885254,1448.920776 
	C1044.669800,1452.247681 1036.084595,1454.661499 1027.195801,1457.647095 
	C1027.195801,1207.365112 1027.195801,957.950989 1027.195801,708.213745 
	C1073.739136,708.213745 1120.139404,708.213745 1167.292603,708.213745 
	C1167.292603,828.012451 1167.292603,947.756226 1167.292725,1068.000000 
z"/>
<path fill="#F37229" opacity="1.000000" stroke="none" 
	d="
M486.614258,1562.415283 
	C489.217010,1561.772949 492.043335,1561.420410 494.869629,1561.067871 
	C494.767853,1560.729126 494.666107,1560.390259 494.564331,1560.051392 
	C498.031250,1561.310181 501.445618,1562.771362 504.999725,1563.694214 
	C505.962097,1563.944214 507.296448,1562.427368 508.550781,1561.970459 
	C510.170105,1561.380493 513.017090,1560.219116 513.377991,1560.718506 
	C517.528076,1566.461304 522.158630,1562.367188 526.743164,1561.978516 
	C530.452271,1561.664062 534.648193,1561.929321 537.965027,1563.416504 
	C542.428345,1565.417603 546.176697,1566.850830 550.661438,1563.693115 
	C556.595642,1559.514648 563.291443,1559.679443 569.093201,1563.912964 
	C574.393494,1556.875488 579.581482,1562.880005 584.930786,1564.200562 
	C586.007446,1564.466431 587.567139,1565.129395 588.153564,1564.663940 
	C593.945618,1560.065918 600.271057,1563.637329 606.309937,1563.252075 
	C608.829285,1563.091431 611.344727,1562.857056 613.865845,1562.740723 
	C614.961060,1562.690063 616.078125,1562.774658 617.163086,1562.941772 
	C618.137512,1563.091553 619.702454,1563.933228 619.947266,1563.625854 
	C624.741150,1557.607300 630.366516,1563.914795 634.982178,1562.552856 
	C641.124573,1560.740356 646.632202,1562.069580 652.438293,1562.890137 
	C653.564514,1563.049316 654.858521,1561.669189 656.064697,1561.687500 
	C658.714478,1561.727661 661.979675,1561.341309 663.868530,1562.696899 
	C667.360474,1565.203125 669.829895,1564.982178 672.481201,1562.012817 
	C674.669861,1559.561646 676.581604,1559.790649 679.399719,1561.564697 
	C681.297607,1562.759399 685.421021,1563.342896 686.607178,1562.194336 
	C690.118835,1558.794312 692.340881,1561.087280 695.254211,1562.567383 
	C696.438660,1563.169189 698.271423,1562.581299 699.794922,1562.408936 
	C702.100525,1562.148315 704.997131,1560.745850 706.568359,1561.665039 
	C710.013245,1563.679932 712.665771,1562.273804 715.412109,1560.999878 
	C721.724792,1558.071655 724.419861,1558.606079 729.552368,1563.635742 
	C730.446167,1564.511597 732.698120,1564.821899 733.931824,1564.356689 
	C736.365601,1563.438843 738.525574,1561.795044 741.462891,1560.058960 
	C742.914978,1561.323975 744.641541,1562.919922 746.475769,1564.380981 
	C747.218140,1564.972534 748.306458,1565.775879 749.047302,1565.613770 
	C752.699585,1564.814941 756.258850,1563.076294 759.906799,1562.912354 
	C763.869080,1562.734131 767.511047,1562.432739 770.856506,1560.150024 
	C771.130432,1559.963013 772.604370,1560.731689 772.719604,1561.238647 
	C773.988220,1566.818604 777.853943,1564.424683 780.568604,1563.456665 
	C784.315735,1562.120361 787.657837,1560.010254 791.410706,1563.474243 
	C792.190369,1564.193848 793.976440,1564.080688 795.258789,1563.952393 
	C800.061890,1563.471436 804.835571,1562.599121 809.645935,1562.324829 
	C812.607239,1562.156128 815.634705,1562.674561 818.598389,1563.113892 
	C826.478882,1564.281860 834.219421,1564.797852 841.817505,1561.354370 
	C843.586792,1560.552490 846.029175,1561.236084 848.897949,1561.236084 
	C847.671753,1562.615234 846.848145,1563.541504 846.024597,1564.467896 
	C846.223694,1564.940918 846.422852,1565.414062 846.621948,1565.887085 
	C847.882446,1565.350586 849.108765,1564.702515 850.411377,1564.303589 
	C852.395630,1563.695923 855.182495,1562.167358 856.315186,1562.944458 
	C860.819397,1566.033936 863.287903,1563.787231 865.337036,1560.777954 
	C870.595337,1561.868042 875.516296,1562.898438 880.444397,1563.893188 
	C880.916443,1563.988403 881.709778,1564.058716 881.887695,1563.808594 
	C884.478088,1560.168945 888.076233,1562.047852 891.287903,1561.462036 
	C897.373962,1560.352173 902.258728,1562.813599 907.656738,1563.715698 
	C910.062988,1564.117676 912.526978,1564.914917 913.358948,1561.024414 
	C913.650940,1559.658691 916.100159,1558.754517 917.681824,1557.550171 
	C920.154785,1563.029297 927.199768,1565.012573 931.545044,1562.146362 
	C934.011963,1560.519165 940.954102,1561.965820 944.884521,1565.143188 
	C946.243713,1563.915283 947.655762,1562.639771 949.338928,1561.119263 
	C950.301880,1562.447021 951.200806,1563.686523 952.468018,1565.433716 
	C955.026611,1563.746338 957.438538,1562.155762 958.954895,1561.155762 
	C964.143127,1561.155762 968.612366,1560.818359 973.008606,1561.240845 
	C978.568298,1561.775269 984.069092,1562.925049 989.593933,1563.817871 
	C990.683167,1563.993896 992.243347,1564.766235 992.776001,1564.312622 
	C996.573120,1561.077393 1000.917725,1562.520264 1005.089905,1562.536621 
	C1008.889893,1562.551514 1012.690552,1562.596069 1016.489136,1562.695068 
	C1017.877808,1562.731079 1019.272400,1562.895874 1020.643799,1563.124878 
	C1021.758301,1563.310791 1023.334167,1564.297119 1023.864624,1563.874146 
	C1030.232056,1558.796143 1038.198608,1564.769043 1045.013062,1560.534912 
	C1047.522949,1558.975464 1052.148926,1560.936279 1055.817993,1561.087036 
	C1058.243530,1561.186646 1060.686157,1560.808838 1063.117065,1560.856323 
	C1065.119263,1560.895142 1067.115356,1561.244995 1069.100342,1562.265381 
	C1070.622192,1561.658691 1072.144165,1561.052124 1073.666016,1560.445557 
	C1073.743408,1561.822876 1073.820923,1563.200073 1073.971802,1565.882935 
	C1076.019775,1563.635986 1077.520996,1561.989136 1079.292969,1560.045166 
	C1081.657471,1560.917480 1084.242432,1561.983765 1086.900024,1562.819336 
	C1089.423950,1563.612915 1092.262817,1565.523926 1093.798706,1561.158081 
	C1093.968018,1560.676636 1096.629517,1561.159424 1098.122070,1561.036621 
	C1100.700195,1560.824219 1103.277344,1560.550171 1105.835938,1560.173218 
	C1106.942749,1560.010010 1108.329468,1558.910278 1109.031982,1559.283813 
	C1115.248047,1562.588135 1121.898193,1561.983887 1128.547363,1562.019775 
	C1131.399048,1562.035156 1134.245605,1563.001221 1137.616211,1563.633057 
	C1137.503540,1562.029663 1137.387695,1560.382324 1137.265137,1558.638794 
	C1140.842529,1560.263428 1144.100952,1562.381714 1147.660278,1563.214966 
	C1153.477295,1564.576660 1159.476562,1565.138672 1165.125366,1562.003296 
	C1165.893921,1561.576538 1167.373291,1561.244629 1167.838501,1561.651611 
	C1170.616577,1564.083008 1172.239624,1562.190430 1174.162720,1560.421631 
	C1175.901245,1558.822388 1177.604614,1557.847656 1179.190186,1561.048950 
	C1179.722168,1562.122925 1181.994263,1562.654541 1183.542358,1562.841064 
	C1187.039185,1563.262329 1190.592896,1563.589478 1194.099609,1563.429688 
	C1196.953735,1563.299805 1200.205566,1563.104248 1202.501343,1561.680420 
	C1205.553101,1559.787720 1207.794678,1559.309570 1210.460449,1561.857666 
	C1210.970215,1562.345215 1211.909912,1562.452148 1212.677246,1562.588013 
	C1214.839111,1562.970703 1217.014526,1563.276978 1219.558716,1563.671265 
	C1219.504639,1562.808716 1219.403198,1561.191406 1219.278564,1559.202515 
	C1220.387207,1559.323120 1221.520996,1559.110840 1221.858521,1559.533936 
	C1226.271240,1565.065186 1232.699585,1563.684082 1238.233154,1563.601318 
	C1242.426880,1563.538574 1246.684204,1559.810547 1250.252808,1564.974487 
	C1256.653320,1561.443359 1263.755127,1565.873535 1269.885864,1563.575439 
	C1273.872681,1562.080933 1276.304565,1564.373047 1279.449097,1564.727661 
	C1279.709229,1564.756958 1279.844971,1565.888428 1280.077148,1566.917725 
	C1268.716919,1574.565674 1257.473145,1582.063965 1245.878052,1588.972656 
	C1232.747070,1596.796265 1219.494263,1604.462891 1205.935303,1611.506226 
	C1193.548218,1617.940918 1180.813965,1623.759766 1167.991089,1629.289795 
	C1153.072388,1635.723633 1138.138916,1642.285400 1122.763428,1647.458984 
	C1101.240112,1654.701172 1079.351562,1660.882812 1057.520264,1667.174683 
	C1047.297729,1670.120850 1036.915161,1672.630737 1026.475220,1674.674438 
	C1013.921143,1677.131836 1001.250488,1679.030151 988.590088,1680.897949 
	C975.941467,1682.763916 963.260803,1684.446167 950.559204,1685.905029 
	C944.310730,1686.622559 937.986877,1686.853760 931.691223,1686.960571 
	C906.767700,1687.383179 881.841614,1687.919922 856.916992,1687.894653 
	C845.526123,1687.883179 834.080261,1687.160400 822.759766,1685.875244 
	C806.653931,1684.046997 790.554626,1681.878540 774.608887,1678.991333 
	C753.083130,1675.093384 731.584778,1670.886719 710.304321,1665.843140 
	C693.923279,1661.960449 677.631042,1657.328735 661.778809,1651.683716 
	C641.438171,1644.440186 621.233154,1636.602173 601.603577,1627.633301 
	C580.122009,1617.818115 559.067139,1606.957153 538.388489,1595.534302 
	C523.280762,1587.188965 509.082642,1577.196777 494.588867,1567.543823 
	C494.664032,1566.265503 494.629395,1565.381958 494.594727,1564.498535 
	C494.032745,1565.094971 493.470764,1565.691406 492.908813,1566.287842 
	C490.885162,1565.093628 488.861511,1563.899414 486.614258,1562.415283 
z"/>
<path fill="#FECF63" opacity="1.000000" stroke="none" 
	d="
M524.799133,388.873108 
	C542.481567,379.100403 559.784058,368.541443 577.947083,359.763123 
	C598.527771,349.816223 619.881104,341.468170 640.893799,332.414154 
	C642.406372,331.762451 643.880859,331.022339 646.186584,329.942230 
	C630.417297,286.549377 614.668701,243.213562 598.528015,198.798904 
	C603.521118,199.287140 607.685303,199.654510 611.840088,200.107666 
	C627.282410,201.791992 642.734863,203.394196 658.158569,205.235764 
	C675.526428,207.309494 692.852539,209.735962 710.224731,211.769852 
	C724.511719,213.442551 738.851196,214.662003 753.146118,216.271942 
	C768.402344,217.990173 783.629150,219.967911 798.877197,221.761169 
	C808.726013,222.919449 818.595825,223.898087 828.445679,225.047928 
	C850.762451,227.653122 873.062561,230.404266 895.388611,232.926132 
	C915.268372,235.171692 935.185059,237.091217 955.065186,239.334427 
	C974.425049,241.518967 993.756653,243.952545 1013.105347,246.237793 
	C1030.598999,248.303909 1048.098633,250.317368 1066.177734,252.421799 
	C1065.380493,253.583817 1064.954102,254.429398 1064.328369,255.084442 
	C1047.442871,272.760437 1030.487549,290.369781 1013.646484,308.087830 
	C989.608765,333.377106 965.649597,358.741028 941.664856,384.080688 
	C939.162354,386.724640 936.713928,389.419861 933.546875,392.011353 
	C929.322510,388.425629 925.415833,386.222870 920.500549,389.087830 
	C914.097900,392.819672 906.740845,392.117401 900.822021,390.135406 
	C896.255554,388.606262 892.896057,389.292542 888.954468,390.035187 
	C887.665466,390.278046 886.364441,391.061432 885.137329,390.934814 
	C873.305969,389.713654 861.312988,392.700653 849.523193,389.208038 
	C844.903809,387.839569 839.720825,386.698181 836.089294,392.076996 
	C835.757141,392.569000 832.815552,392.169891 832.003296,391.313843 
	C828.784180,387.921326 824.653748,388.136902 821.372192,389.610168 
	C816.816345,391.655518 812.478394,391.394165 807.885254,390.990021 
	C805.319763,390.764343 802.724792,390.898956 800.147583,390.776306 
	C795.778015,390.568451 791.414307,390.139679 787.044006,390.073853 
	C782.408142,390.004089 777.459839,386.583893 773.135681,391.276093 
	C772.783508,391.658203 771.147034,390.942017 770.144775,390.619751 
	C768.626404,390.131622 767.131104,389.566376 765.643188,388.989532 
	C760.814209,387.117401 756.400452,391.203278 751.069519,389.604431 
	C748.409851,388.806763 744.552063,390.535309 740.501648,389.788086 
	C734.796082,388.735535 728.496521,390.915680 722.448425,391.694153 
	C721.467407,391.820374 720.378784,392.147522 719.500122,391.871552 
	C710.155884,388.936462 700.618347,389.338165 691.042297,389.977448 
	C687.147522,390.237457 683.047241,389.546021 679.376038,390.534210 
	C673.749084,392.048828 668.767700,391.838104 664.248596,388.153381 
	C662.107483,390.634918 653.033142,393.875977 651.175171,392.292114 
	C644.747437,386.812531 637.469360,391.505493 630.741882,390.081268 
	C627.810425,389.460724 624.241272,392.263855 621.833862,388.269867 
	C621.564148,387.822418 619.945618,388.112396 618.961853,388.185760 
	C616.398010,388.376923 613.839294,388.637756 612.140808,388.792328 
	C609.867126,390.277466 608.137573,392.317902 606.379150,392.343140 
	C603.714294,392.381378 601.062256,390.598633 598.342346,390.385437 
	C596.230530,390.219910 593.961670,391.874084 591.870972,391.660156 
	C586.802429,391.141541 581.802185,389.974426 576.761108,389.149567 
	C575.989319,389.023285 574.786804,389.021149 574.395752,389.481598 
	C571.771240,392.571991 568.821594,391.161743 565.795532,390.460083 
	C561.920593,389.561584 557.996338,388.381897 554.075256,388.310120 
	C549.823059,388.232330 545.562134,389.611603 541.283325,389.770020 
	C535.788147,389.973450 530.065430,393.068085 524.799133,388.873108 
z"/>
<path fill="#7FB741" opacity="1.000000" stroke="none" 
	d="
M677.525208,1431.452881 
	C653.237122,1420.198975 630.463257,1407.056519 608.780029,1392.029297 
	C607.767761,1391.327759 607.167847,1389.784668 606.776062,1388.510498 
	C606.448303,1387.444458 606.705566,1386.198120 606.705566,1385.031616 
	C606.705383,1254.715454 606.705383,1124.399292 606.705383,994.083069 
	C606.705383,991.966980 606.705383,989.850891 606.705383,987.460205 
	C653.698853,987.460205 700.099304,987.460205 746.774414,987.460205 
	C746.774414,1144.282349 746.774414,1300.864990 746.774414,1457.841919 
	C722.973572,1451.077271 700.112671,1442.162109 677.525208,1431.452881 
z"/>
<path fill="#FDC35A" opacity="1.000000" stroke="none" 
	d="
M524.458008,388.925842 
	C530.065430,393.068085 535.788147,389.973450 541.283325,389.770020 
	C545.562134,389.611603 549.823059,388.232330 554.075256,388.310120 
	C557.996338,388.381897 561.920593,389.561584 565.795532,390.460083 
	C568.821594,391.161743 571.771240,392.571991 574.395752,389.481598 
	C574.786804,389.021149 575.989319,389.023285 576.761108,389.149567 
	C581.802185,389.974426 586.802429,391.141541 591.870972,391.660156 
	C593.961670,391.874084 596.230530,390.219910 598.342346,390.385437 
	C601.062256,390.598633 603.714294,392.381378 606.379150,392.343140 
	C608.137573,392.317902 609.867126,390.277466 612.140808,388.792328 
	C613.839294,388.637756 616.398010,388.376923 618.961853,388.185760 
	C619.945618,388.112396 621.564148,387.822418 621.833862,388.269867 
	C624.241272,392.263855 627.810425,389.460724 630.741882,390.081268 
	C637.469360,391.505493 644.747437,386.812531 651.175171,392.292114 
	C653.033142,393.875977 662.107483,390.634918 664.248596,388.153381 
	C668.767700,391.838104 673.749084,392.048828 679.376038,390.534210 
	C683.047241,389.546021 687.147522,390.237457 691.042297,389.977448 
	C700.618347,389.338165 710.155884,388.936462 719.500122,391.871552 
	C720.378784,392.147522 721.467407,391.820374 722.448425,391.694153 
	C728.496521,390.915680 734.796082,388.735535 740.501648,389.788086 
	C744.552063,390.535309 748.409851,388.806763 751.069519,389.604431 
	C756.400452,391.203278 760.814209,387.117401 765.643188,388.989532 
	C767.131104,389.566376 768.626404,390.131622 770.144775,390.619751 
	C771.147034,390.942017 772.783508,391.658203 773.135681,391.276093 
	C777.459839,386.583893 782.408142,390.004089 787.044006,390.073853 
	C791.414307,390.139679 795.778015,390.568451 800.147583,390.776306 
	C802.724792,390.898956 805.319763,390.764343 807.885254,390.990021 
	C812.478394,391.394165 816.816345,391.655518 821.372192,389.610168 
	C824.653748,388.136902 828.784180,387.921326 832.003296,391.313843 
	C832.815552,392.169891 835.757141,392.569000 836.089294,392.076996 
	C839.720825,386.698181 844.903809,387.839569 849.523193,389.208038 
	C861.312988,392.700653 873.305969,389.713654 885.137329,390.934814 
	C886.364441,391.061432 887.665466,390.278046 888.954468,390.035187 
	C892.896057,389.292542 896.255554,388.606262 900.822021,390.135406 
	C906.740845,392.117401 914.097900,392.819672 920.500549,389.087830 
	C925.415833,386.222870 929.322510,388.425629 933.231140,392.078064 
	C925.476562,400.908997 917.369507,409.616943 909.207153,418.272827 
	C887.286804,441.518494 865.340820,464.739990 843.410095,487.975861 
	C839.422363,492.200928 835.458679,496.448792 830.796997,500.838196 
	C826.553284,501.701569 822.667297,504.612915 819.958435,499.348602 
	C819.809448,499.059113 817.644836,499.868958 816.402466,500.067719 
	C813.259094,500.570618 810.120056,501.160400 806.955139,501.458252 
	C798.140991,502.287781 788.993713,495.333832 780.384644,502.595978 
	C779.932190,502.977661 778.558655,502.427185 777.681458,502.118683 
	C773.057983,500.492706 768.540405,498.166809 763.466370,500.658783 
	C762.789001,500.991486 761.639587,501.134613 761.064575,500.783234 
	C755.997620,497.686737 751.679688,500.868683 747.129822,502.245972 
	C746.241272,502.514984 745.249329,502.442291 743.041931,502.640808 
	C744.852417,500.669189 745.719360,499.725067 747.052551,498.273254 
	C741.341797,498.937134 736.284485,499.510742 731.231384,500.119293 
	C729.108398,500.375000 726.955200,500.540192 724.883972,501.033173 
	C719.945984,502.208344 714.154236,499.179016 709.974487,504.046539 
	C707.076538,496.517090 704.123657,489.008148 701.299500,481.451141 
	C699.330872,476.183594 697.517395,470.857544 695.676880,465.542969 
	C694.756531,462.885437 693.235291,462.503082 690.720764,463.652313 
	C669.376099,473.407288 647.656311,482.407471 626.698242,492.927460 
	C591.372620,510.659271 558.946594,532.949219 528.747681,558.460205 
	C528.120056,558.990417 527.352844,559.355408 526.260315,559.553223 
	C524.568909,558.927185 523.240295,558.143311 521.971497,558.230469 
	C515.129883,558.700562 508.313660,559.590271 501.468445,559.945435 
	C493.428436,560.362488 485.780884,555.711853 477.518555,557.955750 
	C475.311829,558.555115 472.965637,558.799438 470.671112,558.888611 
	C462.702850,559.198486 454.729797,559.403625 446.756714,559.547974 
	C445.741241,559.566345 444.730133,558.912476 443.689819,558.708496 
	C442.433075,558.462036 441.084991,558.029968 439.884369,558.254761 
	C432.300842,559.674255 424.695312,561.982971 417.659485,556.490479 
	C417.312378,556.219543 416.407196,556.027100 416.298553,556.179810 
	C413.444489,560.192383 409.491089,556.966064 406.116028,557.685547 
	C400.454742,558.892517 394.873962,561.481018 388.752289,559.108093 
	C386.752930,558.333069 384.199921,558.986267 381.900116,558.986267 
	C379.085968,558.074463 376.282562,557.889282 373.480682,557.683228 
	C367.938171,557.275635 362.704102,561.371521 356.795013,558.195374 
	C354.043793,556.716553 345.984680,558.317200 342.512604,559.818726 
	C338.941406,561.363220 336.770721,560.551636 335.901489,556.687134 
	C340.864990,550.287048 345.394775,543.486145 350.871338,537.560303 
	C369.100128,517.835876 387.092773,497.835693 406.292755,479.084808 
	C421.181213,464.544586 437.367920,451.247589 453.665100,438.260803 
	C469.267242,425.827881 485.636353,414.339142 501.910553,402.776245 
	C509.001038,397.738434 516.696228,393.551727 524.458008,388.925842 
z"/>
<path fill="#1E3566" opacity="1.000000" stroke="none" 
	d="
M424.193756,1151.782227 
	C418.410706,1132.386597 412.299469,1113.482056 407.342010,1094.279785 
	C404.325470,1082.595581 402.682922,1070.503296 401.158600,1058.501099 
	C399.383240,1044.522217 397.430054,1030.452881 397.263062,1016.402466 
	C396.606049,961.123352 396.618958,905.836182 396.400879,850.551941 
	C396.397675,849.744568 396.621582,848.936279 396.776825,847.872681 
	C443.326385,847.872681 489.772522,847.872681 536.609619,847.872681 
	C536.609619,1008.793579 536.609619,1169.817993 536.609619,1331.373047 
	C486.154175,1279.585693 448.629730,1220.036499 424.193756,1151.782227 
z"/>
<path fill="#F79039" opacity="1.000000" stroke="none" 
	d="
M451.972412,1339.638672 
	C450.469635,1339.822510 448.785278,1339.882568 447.190155,1339.533936 
	C441.249420,1338.236328 435.357147,1336.467041 429.257996,1338.742065 
	C428.821503,1338.904785 428.147369,1338.979736 427.802368,1338.756958 
	C420.553619,1334.072998 412.653473,1338.152222 405.119507,1337.120483 
	C402.646851,1336.781860 399.985138,1338.149902 397.402313,1338.185181 
	C395.422089,1338.212280 393.430023,1337.371704 390.385345,1336.674927 
	C390.148834,1336.866333 388.927338,1337.854858 387.705841,1338.843506 
	C387.649506,1338.364746 387.593170,1337.886108 387.536804,1337.407349 
	C383.453766,1337.841919 379.370544,1338.275024 375.287750,1338.712158 
	C374.468018,1338.799927 373.642151,1339.026245 372.832031,1338.976685 
	C367.835419,1338.671509 362.846741,1338.179932 357.846619,1338.010742 
	C355.176331,1337.920288 352.490692,1338.395142 349.807831,1338.535889 
	C346.674683,1338.700439 343.537140,1338.781738 340.401306,1338.894531 
	C334.487030,1339.107422 328.572571,1339.316040 322.658417,1339.532837 
	C322.501007,1339.538574 322.339325,1339.675415 322.191406,1339.657104 
	C314.653290,1338.714355 307.133118,1337.223755 299.573883,1336.988892 
	C294.059021,1336.817505 288.260498,1337.401611 283.057770,1341.033447 
	C277.924835,1332.959717 272.960266,1324.958008 268.486969,1316.690552 
	C252.716721,1287.544312 239.368011,1257.274658 228.219528,1226.098877 
	C222.053833,1208.857056 216.847351,1191.247559 211.837067,1173.625000 
	C207.782837,1159.365234 204.035309,1144.957642 201.292160,1130.400635 
	C197.604630,1110.832275 194.816605,1091.085083 192.033066,1071.359497 
	C190.563232,1060.943481 189.921799,1050.410645 189.331116,1039.459717 
	C190.648682,1037.806274 191.541458,1036.623535 192.715027,1035.068848 
	C197.211853,1035.068848 202.278992,1035.011475 207.343979,1035.091064 
	C210.250641,1035.136597 213.487961,1034.638062 215.990234,1035.729004 
	C221.519531,1038.139771 226.815414,1031.397217 232.163757,1035.748047 
	C232.330780,1035.883911 233.247330,1035.121582 233.800095,1034.756226 
	C236.330170,1033.083984 238.654938,1031.926025 241.114212,1035.172852 
	C241.710464,1035.960205 244.450943,1036.260498 245.186676,1035.618042 
	C249.485229,1031.864380 252.083603,1033.865234 253.575424,1037.059082 
	C257.343384,1036.391479 260.381866,1035.692139 263.459961,1035.360962 
	C265.740509,1035.115479 268.227020,1035.881958 270.352325,1035.266602 
	C276.400696,1033.515503 282.488922,1036.636841 288.880219,1033.926025 
	C292.899261,1032.221436 298.611725,1034.879639 303.548126,1034.779541 
	C305.431091,1034.741333 307.300354,1031.430786 309.118408,1031.486450 
	C311.156525,1031.548950 313.120300,1033.749756 315.143066,1034.976318 
	C315.387115,1035.124268 315.797333,1034.999146 316.130524,1034.999390 
	C320.401062,1035.002075 324.671570,1035.004517 328.942108,1035.007080 
	C339.864044,1148.578369 380.258667,1250.248047 451.972412,1339.638672 
z"/>
<path fill="#FDD668" opacity="1.000000" stroke="none" 
	d="
M1237.000000,993.000000 
	C1237.000000,967.876526 1237.000000,943.253052 1237.000000,918.300171 
	C1284.018555,918.300171 1330.570312,918.300171 1377.423950,918.300171 
	C1377.561035,919.712097 1377.792480,920.994080 1377.793945,922.276367 
	C1377.816528,942.771545 1378.273682,963.280518 1377.665405,983.757629 
	C1377.164917,1000.606628 1375.918457,1017.476807 1374.044434,1034.230347 
	C1371.916992,1053.249268 1369.582886,1072.322998 1365.789062,1091.058960 
	C1360.265381,1118.338257 1351.835083,1144.821655 1341.329346,1170.688232 
	C1332.057129,1193.517822 1321.401733,1215.616699 1308.878906,1236.769775 
	C1295.451904,1259.450073 1280.393433,1281.057129 1263.256348,1301.141235 
	C1256.473755,1309.089966 1249.490356,1316.867065 1242.662231,1324.777466 
	C1241.175293,1326.500122 1239.960938,1328.458130 1238.621094,1330.307739 
	C1238.080688,1329.930908 1237.540405,1329.554077 1237.000000,1329.177246 
	C1237.000000,1217.284790 1237.000000,1105.392456 1237.000000,993.000000 
z"/>
<path fill="#F9A445" opacity="1.000000" stroke="none" 
	d="
M329.027954,1034.569824 
	C324.671570,1035.004517 320.401062,1035.002075 316.130524,1034.999390 
	C315.797333,1034.999146 315.387115,1035.124268 315.143066,1034.976318 
	C313.120300,1033.749756 311.156525,1031.548950 309.118408,1031.486450 
	C307.300354,1031.430786 305.431091,1034.741333 303.548126,1034.779541 
	C298.611725,1034.879639 292.899261,1032.221436 288.880219,1033.926025 
	C282.488922,1036.636841 276.400696,1033.515503 270.352325,1035.266602 
	C268.227020,1035.881958 265.740509,1035.115479 263.459961,1035.360962 
	C260.381866,1035.692139 257.343384,1036.391479 253.575424,1037.059082 
	C252.083603,1033.865234 249.485229,1031.864380 245.186676,1035.618042 
	C244.450943,1036.260498 241.710464,1035.960205 241.114212,1035.172852 
	C238.654938,1031.926025 236.330170,1033.083984 233.800095,1034.756226 
	C233.247330,1035.121582 232.330780,1035.883911 232.163757,1035.748047 
	C226.815414,1031.397217 221.519531,1038.139771 215.990234,1035.729004 
	C213.487961,1034.638062 210.250641,1035.136597 207.343979,1035.091064 
	C202.278992,1035.011475 197.211853,1035.068848 192.715027,1035.068848 
	C191.541458,1036.623535 190.648682,1037.806274 189.399475,1038.997314 
	C185.604980,1012.223694 187.199509,985.308716 187.113724,958.449585 
	C187.078445,947.401367 187.983627,936.314331 189.084274,925.307251 
	C190.475571,911.393677 192.038116,897.465027 194.369659,883.685547 
	C197.532440,864.993469 201.032120,846.330933 205.254807,827.854004 
	C208.845123,812.143921 213.651550,796.711121 217.949463,781.163818 
	C218.829010,777.982117 219.839752,774.836731 221.370773,771.351196 
	C228.262772,771.752930 234.433121,773.509644 240.954559,771.349304 
	C244.455566,770.189575 248.611038,769.890381 252.254837,770.498779 
	C261.021820,771.962402 269.669678,773.516235 278.629028,772.161316 
	C282.153809,771.628235 285.850403,772.308228 289.410522,771.912109 
	C293.869812,771.416016 298.330994,769.389282 302.493317,772.841248 
	C302.654694,772.975098 303.208923,772.848938 303.430603,772.664429 
	C307.296906,769.445190 311.414032,771.291504 315.309937,772.315979 
	C320.413025,773.657776 325.258972,774.757141 329.830963,770.871277 
	C330.484650,770.315735 332.207642,770.230530 332.948334,770.698730 
	C336.585297,772.997681 339.800140,772.260254 343.114014,770.036133 
	C344.028412,769.422485 345.367859,769.442139 346.866486,769.087341 
	C346.623840,771.394348 346.461304,772.939819 346.113617,776.245911 
	C349.032776,774.304688 350.698120,773.011230 352.534027,772.040222 
	C353.798950,771.371277 355.378723,770.637695 356.678619,770.837585 
	C359.105164,771.210815 361.442749,772.206421 363.793823,773.011780 
	C365.544189,773.611389 367.257385,774.319397 368.987183,774.979065 
	C365.298096,785.233337 361.223755,795.368408 358.005096,805.768250 
	C352.396820,823.889160 346.332520,841.957214 342.270081,860.445251 
	C337.499207,882.157471 334.752136,904.310120 330.949738,926.240967 
	C328.339355,941.296875 327.699249,956.444763 327.860748,971.684143 
	C328.046936,989.248291 327.923462,1006.815613 328.066956,1024.380493 
	C328.093536,1027.633789 328.748718,1030.882080 329.027954,1034.569824 
z"/>
<path fill="#FBB550" opacity="1.000000" stroke="none" 
	d="
M369.257996,774.758118 
	C367.257385,774.319397 365.544189,773.611389 363.793823,773.011780 
	C361.442749,772.206421 359.105164,771.210815 356.678619,770.837585 
	C355.378723,770.637695 353.798950,771.371277 352.534027,772.040222 
	C350.698120,773.011230 349.032776,774.304688 346.113617,776.245911 
	C346.461304,772.939819 346.623840,771.394348 346.866486,769.087341 
	C345.367859,769.442139 344.028412,769.422485 343.114014,770.036133 
	C339.800140,772.260254 336.585297,772.997681 332.948334,770.698730 
	C332.207642,770.230530 330.484650,770.315735 329.830963,770.871277 
	C325.258972,774.757141 320.413025,773.657776 315.309937,772.315979 
	C311.414032,771.291504 307.296906,769.445190 303.430603,772.664429 
	C303.208923,772.848938 302.654694,772.975098 302.493317,772.841248 
	C298.330994,769.389282 293.869812,771.416016 289.410522,771.912109 
	C285.850403,772.308228 282.153809,771.628235 278.629028,772.161316 
	C269.669678,773.516235 261.021820,771.962402 252.254837,770.498779 
	C248.611038,769.890381 244.455566,770.189575 240.954559,771.349304 
	C234.433121,773.509644 228.262772,771.752930 221.541534,771.021362 
	C226.430557,756.422180 231.148987,741.584900 237.168610,727.295837 
	C245.585632,707.315735 254.454041,687.487854 264.062714,668.056335 
	C279.874298,636.080872 299.171387,606.141724 319.665588,576.990723 
	C324.517273,570.089722 330.077454,563.686768 335.606598,556.870911 
	C336.770721,560.551636 338.941406,561.363220 342.512604,559.818726 
	C345.984680,558.317200 354.043793,556.716553 356.795013,558.195374 
	C362.704102,561.371521 367.938171,557.275635 373.480682,557.683228 
	C376.282562,557.889282 379.085968,558.074463 381.900116,558.986267 
	C384.199921,558.986267 386.752930,558.333069 388.752289,559.108093 
	C394.873962,561.481018 400.454742,558.892517 406.116028,557.685547 
	C409.491089,556.966064 413.444489,560.192383 416.298553,556.179810 
	C416.407196,556.027100 417.312378,556.219543 417.659485,556.490479 
	C424.695312,561.982971 432.300842,559.674255 439.884369,558.254761 
	C441.084991,558.029968 442.433075,558.462036 443.689819,558.708496 
	C444.730133,558.912476 445.741241,559.566345 446.756714,559.547974 
	C454.729797,559.403625 462.702850,559.198486 470.671112,558.888611 
	C472.965637,558.799438 475.311829,558.555115 477.518555,557.955750 
	C485.780884,555.711853 493.428436,560.362488 501.468445,559.945435 
	C508.313660,559.590271 515.129883,558.700562 521.971497,558.230469 
	C523.240295,558.143311 524.568909,558.927185 525.945557,559.683350 
	C519.948303,565.388550 513.876404,570.720581 507.801392,576.049072 
	C506.931519,576.812012 505.970245,577.485779 505.180054,578.322388 
	C488.600037,595.876648 471.400269,612.900208 455.683838,631.197449 
	C443.987640,644.814331 433.511841,659.630066 423.764160,674.732666 
	C411.025208,694.469604 399.062683,714.751892 387.693756,735.312500 
	C380.739075,747.889893 375.524750,761.429626 369.257996,774.758118 
z"/>
<path fill="#F68C36" opacity="1.000000" stroke="none" 
	d="
M1476.364746,1365.973877 
	C1474.137207,1360.360352 1473.431396,1360.199341 1467.959595,1362.385864 
	C1466.175903,1363.098633 1463.867554,1362.497925 1461.647827,1361.491455 
	C1455.754517,1361.491455 1449.859985,1361.416382 1443.968506,1361.517334 
	C1439.896973,1361.587036 1435.831055,1362.024780 1431.759888,1362.076782 
	C1424.568970,1362.168823 1417.375854,1362.085327 1410.183716,1362.092285 
	C1408.635376,1362.093872 1407.086548,1362.216675 1405.538818,1362.199463 
	C1399.991577,1362.137817 1394.442383,1362.112793 1388.898804,1361.926147 
	C1385.959229,1361.827148 1383.034912,1361.304321 1380.094971,1361.184692 
	C1375.032715,1360.978394 1369.920044,1361.298950 1364.914185,1360.692139 
	C1361.919312,1360.329224 1358.979248,1357.982666 1357.012939,1362.236816 
	C1356.897583,1362.486450 1356.323486,1362.810669 1356.212769,1362.734863 
	C1350.660889,1358.937622 1345.241089,1366.155640 1338.902588,1362.575684 
	C1336.190186,1361.043579 1330.170776,1359.451050 1325.800781,1362.951294 
	C1324.694214,1363.837891 1322.008057,1364.397827 1321.180786,1363.721558 
	C1315.664185,1359.212158 1309.660767,1361.736694 1303.404053,1362.001221 
	C1307.046753,1357.040283 1311.293579,1352.227661 1315.114014,1347.097534 
	C1329.453247,1327.842529 1344.308105,1308.926758 1357.745239,1289.055908 
	C1375.766724,1262.405884 1390.401978,1233.763916 1402.601562,1204.003906 
	C1409.640991,1186.831543 1415.414429,1169.140015 1422.321899,1151.395630 
	C1424.332764,1151.332275 1425.776245,1151.723145 1427.226196,1151.748535 
	C1432.473633,1151.839966 1437.723389,1151.828613 1442.972168,1151.816895 
	C1447.453491,1151.807007 1451.934814,1151.708252 1456.416138,1151.713867 
	C1460.336304,1151.718628 1464.317383,1151.406372 1468.160156,1151.980225 
	C1472.297241,1152.598145 1476.224365,1154.009888 1479.995605,1150.781616 
	C1480.636230,1150.233154 1482.338989,1150.856934 1483.534058,1151.046631 
	C1484.467041,1151.194702 1485.938354,1151.991333 1486.206177,1151.677246 
	C1489.639160,1147.651978 1493.316772,1149.788818 1497.054321,1150.935181 
	C1499.321533,1151.630737 1501.739136,1152.506714 1504.024414,1152.351074 
	C1511.924438,1151.812866 1519.793335,1150.832397 1527.679199,1150.072998 
	C1530.949585,1149.757935 1534.373901,1148.874756 1537.477295,1149.497925 
	C1542.178223,1150.442383 1547.277344,1148.837524 1551.703735,1151.823853 
	C1552.393311,1152.289062 1554.280518,1151.428101 1555.366699,1150.771484 
	C1558.550537,1148.846436 1561.395264,1148.216553 1564.241333,1151.453369 
	C1565.020752,1152.339722 1566.613525,1152.510986 1567.832886,1153.010498 
	C1565.153320,1162.859863 1562.660156,1172.764771 1559.743164,1182.543213 
	C1556.677124,1192.821289 1553.503174,1203.086060 1549.845093,1213.163940 
	C1543.452515,1230.775391 1537.167114,1248.454834 1529.916870,1265.719482 
	C1515.236938,1300.675293 1497.317017,1333.971924 1476.364746,1365.973877 
z"/>
<path fill="#F8993E" opacity="1.000000" stroke="none" 
	d="
M1567.906738,1152.615356 
	C1566.613525,1152.510986 1565.020752,1152.339722 1564.241333,1151.453369 
	C1561.395264,1148.216553 1558.550537,1148.846436 1555.366699,1150.771484 
	C1554.280518,1151.428101 1552.393311,1152.289062 1551.703735,1151.823853 
	C1547.277344,1148.837524 1542.178223,1150.442383 1537.477295,1149.497925 
	C1534.373901,1148.874756 1530.949585,1149.757935 1527.679199,1150.072998 
	C1519.793335,1150.832397 1511.924438,1151.812866 1504.024414,1152.351074 
	C1501.739136,1152.506714 1499.321533,1151.630737 1497.054321,1150.935181 
	C1493.316772,1149.788818 1489.639160,1147.651978 1486.206177,1151.677246 
	C1485.938354,1151.991333 1484.467041,1151.194702 1483.534058,1151.046631 
	C1482.338989,1150.856934 1480.636230,1150.233154 1479.995605,1150.781616 
	C1476.224365,1154.009888 1472.297241,1152.598145 1468.160156,1151.980225 
	C1464.317383,1151.406372 1460.336304,1151.718628 1456.416138,1151.713867 
	C1451.934814,1151.708252 1447.453491,1151.807007 1442.972168,1151.816895 
	C1437.723389,1151.828613 1432.473633,1151.839966 1427.226196,1151.748535 
	C1425.776245,1151.723145 1424.332764,1151.332275 1422.501953,1151.060303 
	C1427.185181,1129.653320 1432.537964,1108.357056 1437.187256,1086.908325 
	C1439.206543,1077.593506 1439.302490,1067.873291 1441.110107,1058.498779 
	C1444.547363,1040.673096 1445.120117,1022.713379 1445.075806,1004.657837 
	C1445.062866,999.400696 1445.800903,994.141724 1446.726562,988.430298 
	C1493.776855,987.961670 1540.295532,987.946289 1586.814087,987.930908 
	C1586.271729,1004.146179 1586.057983,1020.381104 1585.087524,1036.570679 
	C1584.240479,1050.702759 1583.252930,1064.895508 1581.061035,1078.862671 
	C1577.210938,1103.395264 1572.393188,1127.775879 1567.906738,1152.615356 
z"/>
<path fill="#BC8341" opacity="1.000000" stroke="none" 
	d="
M1586.880615,987.474243 
	C1540.295532,987.946289 1493.776855,987.961670 1446.816162,987.970581 
	C1446.373901,964.525940 1446.373901,941.087708 1446.373901,917.325256 
	C1492.083130,917.325256 1537.620361,917.325256 1583.687256,917.325256 
	C1584.449585,929.083496 1585.379150,940.897522 1585.935791,952.729126 
	C1586.473022,964.149231 1586.625732,975.587341 1586.880615,987.474243 
z"/>
<path fill="#FCBE58" opacity="1.000000" stroke="none" 
	d="
M710.002869,504.422424 
	C714.154236,499.179016 719.945984,502.208344 724.883972,501.033173 
	C726.955200,500.540192 729.108398,500.375000 731.231384,500.119293 
	C736.284485,499.510742 741.341797,498.937134 747.052551,498.273254 
	C745.719360,499.725067 744.852417,500.669189 743.041931,502.640808 
	C745.249329,502.442291 746.241272,502.514984 747.129822,502.245972 
	C751.679688,500.868683 755.997620,497.686737 761.064575,500.783234 
	C761.639587,501.134613 762.789001,500.991486 763.466370,500.658783 
	C768.540405,498.166809 773.057983,500.492706 777.681458,502.118683 
	C778.558655,502.427185 779.932190,502.977661 780.384644,502.595978 
	C788.993713,495.333832 798.140991,502.287781 806.955139,501.458252 
	C810.120056,501.160400 813.259094,500.570618 816.402466,500.067719 
	C817.644836,499.868958 819.809448,499.059113 819.958435,499.348602 
	C822.667297,504.612915 826.553284,501.701569 830.490601,500.975739 
	C822.131958,510.298523 813.417908,519.659485 804.648499,528.968323 
	C784.274170,550.596191 763.873169,572.198975 742.526184,594.826050 
	C731.518311,564.328491 720.774780,534.563416 710.002869,504.422424 
z"/>
<path fill="#F47C2E" opacity="1.000000" stroke="none" 
	d="
M492.955444,1566.491089 
	C493.470764,1565.691406 494.032745,1565.094971 494.594727,1564.498535 
	C494.629395,1565.381958 494.664032,1566.265503 494.335083,1567.283691 
	C493.648315,1567.177002 493.325195,1566.935669 492.955444,1566.491089 
z"/>
</svg>