<?xml version="1.0" encoding="UTF-8"?>
<svg version="1.1" xmlns="http://www.w3.org/2000/svg" width="250" height="250">
<path d="M0 0 C14.44970022 0.57275142 28.71841928 2.28473158 43.0625 4.0625 C45.39382125 4.34748792 47.72520115 4.63199648 50.05664062 4.91601562 C55.70511403 5.60516142 61.35283899 6.30018544 67 7 C66.0739224 8.26135236 65.14404836 9.51991779 64.21264648 10.77734375 C63.69524399 11.47851318 63.17784149 12.17968262 62.64476013 12.90209961 C60.05111482 16.21030815 57.08256941 19.08547841 54.0625 22 C49.77815287 26.20423468 45.64820362 30.42604787 41.76953125 35.01171875 C38.57138809 38.60521736 35.08394012 41.92409207 31.66015625 45.30078125 C28.71783555 48.28630783 25.99581195 51.39630767 23.33984375 54.63671875 C22.89769531 55.08660156 22.45554687 55.53648438 22 56 C21.34 56 20.68 56 20 56 C18.9936345 53.56495491 17.99473587 51.12729136 17 48.6875 C16.71382813 47.99720703 16.42765625 47.30691406 16.1328125 46.59570312 C14.91089256 43.58454326 14 41.28113016 14 38 C-8.58042205 49.19755982 -24.88087185 63.57511148 -33.3828125 87.76953125 C-39.71487858 109.26755978 -36.56800229 130.8883665 -26.0703125 150.40234375 C-23.48393948 155.00551457 -20.55669433 159.09446145 -17 163 C-16.32324219 163.75667969 -15.64648438 164.51335937 -14.94921875 165.29296875 C-0.33811611 180.78644704 19.78244469 188.31934297 40.76171875 188.99609375 C60.14071736 189.23685384 78.44479128 181.56429293 93 169 C93.66644531 168.42894531 94.33289063 167.85789063 95.01953125 167.26953125 C110.91399027 152.5663729 117.77587648 131.80271579 118.6875 110.6875 C118.8421875 105.8921875 118.8421875 105.8921875 119 101 C125.93 101 132.86 101 140 101 C140.53874379 129.9125836 135.04084128 156.11593754 115 178 C114.22914063 178.85207031 113.45828125 179.70414063 112.6640625 180.58203125 C97.2438813 196.82562018 74.66330845 208.83272753 52.01831055 210.17700195 C20.16283598 210.80035302 -4.56754861 204.59814249 -28.6015625 182.62109375 C-46.05967076 165.76953608 -57.45592669 141.88453531 -58.30078125 117.45703125 C-58.32021633 115.57561716 -58.32375961 113.69398078 -58.3125 111.8125 C-58.30404053 110.3109436 -58.30404053 110.3109436 -58.29541016 108.77905273 C-57.86150097 81.99053082 -46.93914431 57.85357589 -28 39 C-19.91627702 31.39848951 -5.47785936 19 6 19 C5.566875 17.79601562 5.13375 16.59203125 4.6875 15.3515625 C4.12483503 13.77610058 3.56234403 12.20057651 3 10.625 C2.57074219 9.43390625 2.57074219 9.43390625 2.1328125 8.21875 C1.86210938 7.45820313 1.59140625 6.69765625 1.3125 5.9140625 C1.06113281 5.2123291 0.80976562 4.5105957 0.55078125 3.78759766 C0 2 0 2 0 0 Z " fill="#F79B41" transform="translate(84,20)"/>
<path d="M0 0 C6.6 0 13.2 0 20 0 C20 42.24 20 84.48 20 128 C16.23472045 128.94131989 13.29132381 129.13376865 9.4375 129.125 C8.30183594 129.12757813 7.16617188 129.13015625 5.99609375 129.1328125 C3 129 3 129 0 128 C0 85.76 0 43.52 0 0 Z " fill="#F36D29" transform="translate(115,72)"/>
<path d="M0 0 C6.93 0 13.86 0 21 0 C21 32.34 21 64.68 21 98 C5 106 5 106 0 107 C0 71.69 0 36.38 0 0 Z " fill="#F36D29" transform="translate(144,91)"/>
<path d="M0 0 C6.93 0 13.86 0 21 0 C21 22.11 21 44.22 21 67 C15 66 15 66 0 58 C0 38.86 0 19.72 0 0 Z " fill="#F36D29" transform="translate(85,131)"/>
<path d="M0 0 C6.93 0 13.86 0 21 0 C21 22.77 21 45.54 21 69 C8.35081321 58.1578399 1.57346228 42.93663341 0.13183594 26.33349609 C-0.36303877 17.5742138 -0.12956837 8.7674598 0 0 Z " fill="#F36D29" transform="translate(55,111)"/>
<path d="M0 0 C6.93 0 13.86 0 21 0 C21.60256045 21.69217627 17.21998903 41.06773852 2.41796875 57.6015625 C1 59 1 59 0 59 C0 39.53 0 20.06 0 0 Z " fill="#F36D29" transform="translate(174,121)"/>
</svg>
